# xmcd
#
# Track frame offsets:
#	150
#	3761
#	23817
#	26415
#	43388
#	60113
#	78106
#	93106
#	99417
#	118738
#	137486
#	142790
#	146367
#	167577
#	169997
#	190015
#	205308
#	221122
#
# Disc length: 3186 seconds
#
# Revision: 2
# Processed by: cddbd v1.5.2PL0 Copyright (c) Steve Scherf et al.
# Submitted via: audiograbber 1.83.01
#
DISCID=e10c7012
DTITLE=The Firm - The Album
DYEAR=1997
DGENRE=Rap
TTITLE0=The Firm - Intro
TTITLE1=The Firm - Firm Fiasco
TTITLE2=The Firm - Phone Tap Intro
TTITLE3=The Firm, Dr. Dre - Phone Tap
TTITLE4=The Firm - Executive Decision
TTITLE5=The Firm, Dr. Dre - Firm Family 
TTITLE6=The Firm, Pretty Boy - Firm All Stars 
TTITLE7=The Firm - Fuck Somebody Else (Intro)
TTITLE8=The Firm - Fuck Somebody Else
TTITLE9=The Firm - Hardcore
TTITLE10=Wizard - Untouchable
TTITLE11=The Firm - Five Minutes To Flush (Intro)
TTITLE12=The Firm - Five Minutes To Flush
TTITLE13=The Firm - Desparados (Intro)
TTITLE14=The Firm, Canibus - Desparados 
TTITLE15=The Firm, Dawn Robinson - Firm Biz
TTITLE16=The Firm, Noreaga - I'm Leaving 
TTITLE17=The Firm, Half-A-Mil - Throw Your Guns 
EXTD=www.RapMusicGuide.com
EXTT0=
EXTT1=
EXTT2=
EXTT3=
EXTT4=
EXTT5=
EXTT6=
EXTT7=
EXTT8=
EXTT9=
EXTT10=
EXTT11=
EXTT12=
EXTT13=
EXTT14=
EXTT15=
EXTT16=
EXTT17=
PLAYORDER=
